<svg width="30" height="30" viewBox="0 0 30 30" xmlns="http://www.w3.org/2000/svg">
  <!-- Left circle (soccer ball style) -->
  <circle cx="10.5" cy="10.5" r="9.5" fill="white" stroke="black" stroke-width="1"/>
  <!-- Football stripes (simplified for small scale) -->
  <g>
    <rect x="2" y="4" width="17" height="1" fill="black" opacity="0.25"/>
    <rect x="2" y="7" width="17" height="1" fill="black" opacity="0.25"/>
    <rect x="2" y="10" width="17" height="1" fill="black" opacity="0.25"/>
    <rect x="2" y="13" width="17" height="1" fill="black" opacity="0.25"/>
    <rect x="2" y="16" width="17" height="1" fill="black" opacity="0.25"/>
  </g>
  <!-- Right circle (yellow/map) -->
  <circle cx="19.5" cy="10.5" r="9.5" fill="#FFD600" stroke="black" stroke-width="1"/>
  <!-- Map shape (abstracted) -->
  <g>
    <path d="M13 15 Q17 7, 27 13 Q25 9, 21 10 Q22 13, 19 11 Q16 13, 13 15 Z"
      fill="#FFD600" stroke="black" stroke-width="0.3"/>
    <!-- White stripes on yellow -->
    <rect x="11" y="5" width="17" height="1" fill="white" opacity="0.3"/>
    <rect x="11" y="8" width="17" height="1" fill="white" opacity="0.3"/>
    <rect x="11" y="11" width="17" height="1" fill="white" opacity="0.3"/>
    <rect x="11" y="14" width="17" height="1" fill="white" opacity="0.3"/>
    <rect x="11" y="17" width="17" height="1" fill="white" opacity="0.3"/>
    <!-- Bubbles -->
    <circle cx="25" cy="12" r="1" fill="white" opacity="0.8"/>
    <circle cx="26" cy="14" r="0.6" fill="white" opacity="0.8"/>
    <circle cx="24" cy="14.5" r="0.4" fill="white" opacity="0.8"/>
  </g>
</svg>